<?xml version="1.0" encoding="UTF-8" standalone="no"?>
<svg
   xmlns:dc="http://purl.org/dc/elements/1.1/"
   xmlns:cc="http://creativecommons.org/ns#"
   xmlns:rdf="http://www.w3.org/1999/02/22-rdf-syntax-ns#"
   xmlns:svg="http://www.w3.org/2000/svg"
   xmlns="http://www.w3.org/2000/svg"
   xmlns:sodipodi="http://sodipodi.sourceforge.net/DTD/sodipodi-0.dtd"
   xmlns:inkscape="http://www.inkscape.org/namespaces/inkscape"
   width="256pt"
   height="256pt"
   viewBox="0 0 256 256"
   version="1.1"
   id="svg2985"
   inkscape:version="0.48.5 r10040"
   sodipodi:docname="favicon.svg">
  <metadata
     id="metadata2998">
    <rdf:RDF>
      <cc:Work
         rdf:about="">
        <dc:format>image/svg+xml</dc:format>
        <dc:type
           rdf:resource="http://purl.org/dc/dcmitype/StillImage" />
      </cc:Work>
    </rdf:RDF>
  </metadata>
  <defs
     id="defs2996" />
  <sodipodi:namedview
     pagecolor="#ffffff"
     bordercolor="#666666"
     borderopacity="1"
     objecttolerance="10"
     gridtolerance="10"
     guidetolerance="10"
     inkscape:pageopacity="0"
     inkscape:pageshadow="2"
     inkscape:window-width="1622"
     inkscape:window-height="1005"
     id="namedview2994"
     showgrid="false"
     inkscape:zoom="0.7375"
     inkscape:cx="-10.169492"
     inkscape:cy="160"
     inkscape:window-x="0"
     inkscape:window-y="1"
     inkscape:window-maximized="1"
     inkscape:current-layer="svg2985" />
  <path
     inkscape:connector-curvature="0"
     id="path2988"
     d="M 255.41016,127.70703 C 255.43359,198.25 198.25,255.45312 127.70703,255.45312 57.160156,255.45312 -0.0234375,198.25 0,127.70703 -0.0234375,57.160156 57.160156,-0.0390625 127.70703,-0.0390625 c 70.54297,0 127.72656,57.1992185 127.70313,127.7460925 z m 0,0"
     style="fill:#232b23;fill-opacity:1;fill-rule:nonzero;stroke:none" />
  <g
     id="g3003"
     transform="matrix(0.91004194,0,0,0.91004194,11.488105,11.49005)">
    <path
       style="fill:#ffffff;fill-opacity:1;fill-rule:nonzero;stroke:none"
       d="m 89.382812,147.42969 c 0,7.12109 -0.890624,13.5039 -2.671874,19.14453 -1.71875,5.63672 -4.300782,10.41797 -7.746094,14.33594 -3.382813,3.85937 -7.566406,6.82421 -12.554688,8.90234 -4.984375,2.07812 -10.714844,3.11719 -17.183594,3.11719 -5.878906,0 -11.875,-0.83203 -17.988281,-2.49219 0.117188,-1.72266 0.265625,-3.41406 0.445313,-5.07422 0.179687,-1.72266 0.328125,-3.41406 0.445312,-5.07812 0.117188,-1.00782 0.476563,-1.8086 1.066406,-2.40235 0.65625,-0.65234 1.632813,-0.98047 2.941407,-0.98047 1.066406,0 2.460937,0.26563 4.183593,0.80078 1.78125,0.53516 4.15625,0.80079 7.125,0.80079 3.917969,0 7.417969,-0.59375 10.507813,-1.78125 3.085937,-1.1875 5.667969,-3.02735 7.746094,-5.51954 2.078125,-2.49218 3.648437,-5.66796 4.71875,-9.52734 1.128906,-3.91797 1.691406,-8.54687 1.691406,-13.89062 l 0,-83.87891 17.273437,0 0,83.52344"
       id="path2990"
       inkscape:connector-curvature="0" />
    <path
       style="fill:#ffffff;fill-opacity:1;fill-rule:nonzero;stroke:none"
       d="m 224.17187,130.15625 0,48.97266 c -6.41015,4.6289 -13.26562,8.10156 -20.5664,10.41796 -7.24219,2.25391 -15.19922,3.38282 -23.86328,3.38282 -10.26953,0 -19.53125,-1.57422 -27.78516,-4.71875 -8.25,-3.20703 -15.3125,-7.65625 -21.19141,-13.35547 -5.8164,-5.75781 -10.29687,-12.64453 -13.44531,-20.66016 -3.14453,-8.01172 -4.71875,-16.82812 -4.71875,-26.44531 0,-9.73437 1.51563,-18.60937 4.54297,-26.625 3.08594,-8.011719 7.44922,-14.867188 13.08594,-20.566406 5.64062,-5.757813 12.49609,-10.210938 20.57031,-13.359375 8.07422,-3.144531 17.09766,-4.71875 27.07031,-4.71875 5.04688,0 9.73438,0.386719 14.07032,1.160156 4.33203,0.710937 8.33984,1.78125 12.01953,3.203125 3.67968,1.367188 7.09375,3.058594 10.23828,5.078125 3.14844,1.957031 6.08594,4.183594 8.8164,6.675781 l -4.89843,7.835938 c -0.76953,1.1875 -1.78125,1.960937 -3.02735,2.316406 -1.1875,0.296875 -2.52343,0 -4.00781,-0.890625 -1.42187,-0.832031 -3.05469,-1.839844 -4.89453,-3.027344 -1.83984,-1.1875 -4.09766,-2.316406 -6.76953,-3.382812 -2.60938,-1.128907 -5.72656,-2.078125 -9.34766,-2.851563 -3.5625,-0.769531 -7.80859,-1.15625 -12.73437,-1.15625 -7.1836,0 -13.6836,1.1875 -19.5,3.5625 -5.81641,2.3125 -10.77344,5.667969 -14.8711,10.058594 -4.09375,4.335938 -7.24218,9.61719 -9.4375,15.85156 -2.19531,6.17188 -3.29687,13.1211 -3.29687,20.83594 0,8.01562 1.1289,15.19531 3.38672,21.54687 2.3125,6.29297 5.57812,11.66797 9.79297,16.11719 4.27343,4.39453 9.4375,7.75 15.49609,10.0625 6.05469,2.31641 12.85156,3.47266 20.39062,3.47266 5.9336,0 11.1875,-0.65235 15.75782,-1.95703 4.63281,-1.36719 9.14453,-3.23438 13.53515,-5.60938 l 0,-28.05078 -19.85547,0 c -1.1289,0 -2.04687,-0.32422 -2.76171,-0.98047 -0.65235,-0.65234 -0.98047,-1.45312 -0.98047,-2.40234 l 0,-9.79297 39.17968,0"
       id="path2992"
       inkscape:connector-curvature="0" />
  </g>
</svg>
